<svg width="285" height="94" viewBox="0 0 285 94" fill="none" xmlns="http://www.w3.org/2000/svg">
<path d="M4 0L282 0L279.505 7.01539C276.061 16.6983 274.301 26.8995 274.301 37.1766L274.302 67.9995C274.302 81.2545 263.557 92 250.302 92H38.2672C25.0126 92 14.2675 81.2552 14.2672 68.0005L14.2666 41.9059C14.2663 28.5669 11.301 15.3947 5.58514 3.34241L4 0Z" fill="white"/>
<path d="M4 -1H2.41899L3.09646 0.428505L4.68161 3.77092C10.3339 15.6893 13.2663 28.7151 13.2666 41.9059L13.2672 68.0006C13.2675 81.8075 24.4603 93 38.2672 93H250.302C264.109 93 275.302 81.8068 275.302 67.9995L275.301 37.1766C275.301 27.0137 277.041 16.9258 280.447 7.3505L282.942 0.335103L283.417 -1H282H4Z" stroke="white" stroke-opacity="0.2" stroke-width="2"/>
<g clip-path="url(#clip0_6859_426671)">
<path d="M66.8474 63.896C62.9083 64.0354 59.0528 62.7409 56 60.2541L59.1295 54.7396C61.7372 56.5082 64.0322 57.4445 66.223 57.4445C66.8431 57.493 67.463 57.3473 67.9962 57.0279C68.1664 56.9309 68.3115 56.7957 68.4202 56.6331C68.5289 56.4704 68.5981 56.2847 68.6223 56.0908C68.6386 55.9109 68.6024 55.7301 68.5181 55.5703C68.436 55.3842 68.287 55.2355 68.1004 55.1537C67.892 55.0497 67.7878 54.9458 67.5785 54.8419C67.3432 54.7205 67.0988 54.6177 66.8474 54.5343C66.563 54.4477 66.2843 54.3436 66.0129 54.2225C65.7112 54.0869 65.3964 53.9824 65.0734 53.9107C64.6557 53.8068 64.3431 53.7029 64.0305 53.5989C62.1733 52.9716 60.4431 52.019 58.9211 50.7859C58.3337 50.2013 57.8731 49.5024 57.568 48.7327C57.263 47.963 57.12 47.1389 57.1479 46.3117C57.1011 45.1439 57.3431 43.9826 57.8525 42.9302C58.3619 41.8777 59.1231 40.9665 60.0691 40.2768C62.3394 38.7401 65.0458 37.9742 67.7869 38.0925C71.3948 38.007 74.9371 39.0633 77.9058 41.1099L74.8805 46.4165C72.9342 45.1918 70.7099 44.476 68.413 44.3353C67.7929 44.2867 67.1731 44.4324 66.6398 44.7518C66.4532 44.8273 66.2937 44.957 66.182 45.1242C66.0703 45.2913 66.0117 45.4881 66.0138 45.689C66.0138 46.1055 66.2222 46.4173 66.7441 46.7291C67.5777 47.1588 68.4509 47.5072 69.3517 47.7693C71.3297 48.4436 73.2488 49.2787 75.0897 50.2663C75.9828 50.8786 76.7084 51.7037 77.2006 52.6667C77.6928 53.6297 77.9361 54.7001 77.9083 55.7807C77.9533 56.9821 77.6776 58.1738 77.1094 59.2342C76.5413 60.2945 75.701 61.1853 74.6746 61.8156C72.3318 63.2718 69.6061 63.9963 66.8474 63.896Z" fill="#1245FF"/>
<path d="M81.8706 63.3756V28H90.8389V63.3756H81.8706Z" fill="#1245FF"/>
<path d="M107.428 64.0001C103.464 64.0001 100.23 62.856 97.9348 60.4621C95.6398 58.0683 94.4927 54.9486 94.4927 50.9949C94.4927 47.0412 95.6398 43.8158 98.0399 41.5268C100.334 39.1329 103.461 37.9888 107.533 37.9888C111.705 37.9888 114.835 39.1329 117.13 41.422C119.425 43.711 120.572 46.9364 120.572 50.994C120.572 54.9477 119.425 58.0691 117.13 60.4621C114.483 62.8605 111.001 64.1305 107.428 64.0001ZM102.943 50.9949C102.943 55.0525 104.403 57.0298 107.428 57.0298C110.454 57.0298 111.917 55.0525 111.917 50.9949C111.917 46.9372 110.456 44.9599 107.431 44.9599C104.507 44.9599 102.943 46.9338 102.943 50.9949Z" fill="#1245FF"/>
<path d="M140.809 54.9485L143.313 61.0874C140.801 62.9982 137.708 63.9907 134.55 63.8987C133.326 63.959 132.102 63.7683 130.955 63.3384C129.807 62.9085 128.76 62.2485 127.878 61.3992C126.209 59.7345 125.375 57.4454 125.375 54.3241V44.3354H122.241V38.5092H125.37V30.9136H134.237V38.6131H141.643V44.4393H134.237V53.2839C134.237 55.2612 135.28 56.3013 137.262 56.3013C138.545 56.1772 139.771 55.7098 140.809 54.9485Z" fill="#1245FF"/>
<path d="M163.342 54.9485L165.846 61.0874C163.334 62.9982 160.241 63.9907 157.083 63.8987C155.859 63.959 154.635 63.7683 153.487 63.3384C152.34 62.9085 151.293 62.2485 150.411 61.3992C148.742 59.7345 147.907 57.4454 147.907 54.3241V44.3354H144.773V38.5092H147.903V30.9136H156.77V38.6131H164.176V44.4393H156.77V53.2839C156.77 55.2612 157.813 56.3013 159.795 56.3013C161.082 56.195 162.312 55.7258 163.342 54.9485Z" fill="#1B1C29"/>
<path d="M168.141 63.3766V38.6133H177.007V63.3766H168.141Z" fill="#1B1C29"/>
<path d="M193.073 63.896C189.843 63.9922 186.703 62.8361 184.31 60.6707C181.911 58.4855 180.659 55.3675 180.659 51.2025C180.659 47.1449 181.911 43.9196 184.31 41.5266C186.814 39.1335 189.947 37.9886 193.907 37.9886C196.125 37.974 198.312 38.5103 200.27 39.5493C202.226 40.5461 203.802 42.154 204.756 44.1274L198.184 47.5606C197.872 46.89 197.399 46.3066 196.807 45.8621C196.214 45.4177 195.521 45.1259 194.788 45.0127C194.056 44.8996 193.306 44.9685 192.607 45.2134C191.907 45.4582 191.279 45.8715 190.778 46.4165C189.839 47.3536 189.422 48.9135 189.422 50.9947C189.422 52.9717 189.839 54.4284 190.674 55.365C191.062 55.8084 191.544 56.1599 192.086 56.3939C192.627 56.628 193.214 56.7386 193.804 56.7178C195.683 56.7178 197.35 55.5737 198.602 53.3885L204.965 56.7178C202.878 61.5013 198.81 63.896 193.073 63.896Z" fill="#1B1C29"/>
<path d="M218.63 37.9889C221.616 37.8578 224.547 38.8197 226.871 40.6937C228.957 42.4623 230 45.064 230 48.2893V63.3758H222.385V60.7749C221.453 61.8016 220.307 62.6128 219.028 63.1519C217.748 63.6911 216.367 63.9451 214.979 63.8963C212.736 64.013 210.533 63.2682 208.824 61.8151C208.043 61.1095 207.431 60.2378 207.034 59.2646C206.637 58.2913 206.464 57.2414 206.529 56.1925C206.492 54.3996 207.124 52.6569 208.302 51.3025C209.541 50.0338 211.086 49.1026 212.788 48.5977C214.725 48.0742 216.728 47.8289 218.734 47.8693C219.85 47.8767 220.964 47.9461 222.072 48.0772C222.109 47.5724 222.013 47.0669 221.793 46.6107C221.573 46.1545 221.238 45.7634 220.82 45.4763C219.937 44.8625 218.869 44.5688 217.795 44.644C215.149 44.7343 212.597 45.6433 210.493 47.2449L207.155 41.9383C208.637 40.624 210.378 39.6317 212.266 39.0248C214.312 38.3191 216.465 37.9687 218.63 37.9889ZM217.483 57.4457C218.046 57.4514 218.604 57.3437 219.123 57.1291C219.643 56.9145 220.114 56.5974 220.508 56.1968C221.4 55.3115 221.922 54.1217 221.969 52.8675H219.15C216.438 52.8675 215.082 53.6998 215.082 55.2605C215.074 55.5495 215.126 55.837 215.233 56.1055C215.341 56.3739 215.503 56.6175 215.708 56.8212C215.934 57.0567 216.213 57.236 216.521 57.3444C216.829 57.4529 217.159 57.4876 217.483 57.4457Z" fill="#1B1C29"/>
</g>
<defs>
<clipPath id="clip0_6859_426671">
<rect width="174" height="36" fill="white" transform="translate(56 28)"/>
</clipPath>
</defs>
</svg>
